<?xml version="1.0" encoding="iso-8859-1"?>
<!-- Generator: Adobe Illustrator 19.0.0, SVG Export Plug-In . SVG Version: 6.00 Build 0)  -->
<svg version="1.1" xmlns="http://www.w3.org/2000/svg" xmlns:xlink="http://www.w3.org/1999/xlink" x="0px" y="0px"
	 viewBox="0 0 512 512" style="enable-background:new 0 0 512 512;" xml:space="preserve">
<g id="F372_x2C__Arrow_x2C__change_x2C__upside">
	<path style="fill:#fff;" d="M146,496c-5.523,0-10-4.478-10-10V26c0-5.523,4.477-10,10-10s10,4.477,10,10v460
		C156,491.522,151.523,496,146,496z"/>
	<path style="fill:#fff;" d="M266.005,176c-2.818,0-5.619-1.185-7.598-3.492l-120-140c-3.594-4.193-3.108-10.506,1.085-14.101
		c4.193-3.594,10.506-3.108,14.101,1.085l120,140c3.594,4.193,3.108,10.506-1.085,14.101C270.622,175.209,268.308,176,266.005,176z"
		/>
	<path style="fill:#fff;" d="M25.995,176c-2.303,0-4.617-0.791-6.503-2.407c-4.193-3.594-4.679-9.907-1.085-14.101l120-140
		c3.594-4.192,9.907-4.679,14.101-1.085c4.193,3.594,4.679,9.907,1.085,14.101l-120,140C31.615,174.815,28.813,176,25.995,176z"/>
	<path style="fill:#fff;" d="M366,496c-5.523,0-10-4.478-10-10V26c0-5.523,4.477-10,10-10c5.522,0,10,4.477,10,10v460
		C376,491.522,371.522,496,366,496z"/>
	<path style="fill:#fff;" d="M365.995,496c-2.303,0-4.617-0.791-6.503-2.407c-4.193-3.595-4.679-9.907-1.085-14.101l120-140
		c3.593-4.194,9.906-4.68,14.101-1.085c4.193,3.595,4.679,9.907,1.085,14.101l-120,140C371.615,494.815,368.813,496,365.995,496z"/>
	<path style="fill:#fff;" d="M366.005,496c-2.818,0-5.619-1.185-7.598-3.492l-120-140c-3.594-4.193-3.108-10.506,1.085-14.101
		c4.193-3.595,10.506-3.109,14.101,1.085l120,140c3.594,4.193,3.108,10.506-1.085,14.101C370.622,495.209,368.308,496,366.005,496z"
		/>
</g>
<g id="Layer_1">
</g>
</svg>
